<?xml version="1.0" encoding="UTF-8"?> <svg xmlns="http://www.w3.org/2000/svg" width="500" height="281" viewBox="0 0 500 281" fill="none"><rect width="500" height="281" fill="white"></rect><path d="M98.2301 154.515L124.797 137.973H138.585C139.01 137.973 139.399 138.31 139.399 138.788C139.399 139.178 139.222 139.337 139.01 139.461L125.965 147.289C125.116 147.803 124.815 148.812 124.815 149.574L124.797 154.515H141.382V125.842C141.382 125.293 140.957 124.815 140.32 124.815H124.496L98 141.285V154.515H98.2301Z" fill="black"></path><path d="M316.077 154.515H339.972V148.086H323.652V142.702H336.786V136.256H323.652V131.244H339.972V124.815H316.077V154.515Z" fill="black"></path><path d="M165.931 124.815L154.55 154.515H162.374L164.356 148.954H177.064L179.011 154.515H187.1L175.577 124.815H165.931ZM166.604 142.631L170.763 130.996L174.852 142.631H166.604Z" fill="black"></path><path d="M219.561 131.244H229.136V154.515H236.694V131.244H246.234V124.815H219.561V131.244Z" fill="black"></path><path d="M208.552 143.074C208.552 146.935 206.18 148.493 202.127 148.493C198.198 148.493 195.631 146.864 195.631 143.074V124.708H188.056V143.942C188.056 152.514 195.702 155.188 202.109 155.188C208.481 155.188 216.092 152.514 216.092 143.942V124.708H208.516V143.074H208.552Z" fill="black"></path><path d="M402.433 124.815H393.424L382.628 136.875V124.815H375.052L375.087 154.515H382.628V143.233L392.858 154.515H402.433L388.628 139.851L402.433 124.815Z" fill="black"></path><path d="M298.271 124.815H284.395V154.515H298.271C308.909 154.515 311.847 150.548 311.847 139.443C311.847 129.012 309.032 124.815 298.271 124.815ZM297.97 148.086H291.952V131.244H297.97C302.714 131.244 304.13 132.536 304.13 139.443C304.13 145.748 302.537 148.086 297.97 148.086Z" fill="black"></path><path d="M362.857 137.035L355.954 136.256C351.919 135.813 350.91 134.803 350.91 133.44C350.91 131.917 352.981 130.553 357.034 130.553C360.928 130.553 362.963 132.005 363.335 134.183H370.751C370.379 127.896 365.123 124 357.441 124C348.308 124 343.724 127.631 343.724 134.059C343.724 139.284 346.768 141.746 353.069 142.419L360.078 143.163C362.751 143.464 363.972 144.491 363.972 145.837C363.972 147.36 362.184 148.724 357.883 148.724C352.91 148.724 350.91 147.466 350.573 144.934H343.299C343.635 151.77 348.078 155.259 357.618 155.259C366.326 155.259 371.193 151.433 371.193 145.677C371.193 140.665 368.308 137.655 362.857 137.035Z" fill="black"></path><path d="M263.845 124C253.049 124 247.456 130.641 247.456 139.585C247.456 148.564 253.049 155.241 263.845 155.241C274.678 155.241 280.271 148.564 280.271 139.585C280.288 130.641 274.678 124 263.845 124ZM263.845 148.564C258.252 148.564 255.173 145.146 255.173 139.585C255.173 134.13 258.252 130.677 263.845 130.677C269.492 130.677 272.518 134.13 272.518 139.585C272.536 145.164 269.492 148.564 263.845 148.564Z" fill="black"></path></svg> 